<?xml version="1.0" encoding="UTF-8" standalone="no"?>
<!-- Created with Inkscape (http://www.inkscape.org/) -->

<svg
   width="1920"
   height="1080"
   viewBox="0 0 1920 1080"
   version="1.1"
   id="svg1"
   xml:space="preserve"
   xmlns="http://www.w3.org/2000/svg"
   xmlns:svg="http://www.w3.org/2000/svg"><defs
     id="defs1" /><g
     id="layer1"><g
       id="g1"
       transform="translate(1.1057703,-0.51282051)"><rect
         x="0"
         y="0"
         width="960"
         height="1080"
         fill="#1e1e2e"
         id="rect1" /><path
         d="m 262,0 -0.7,30 c -0.6,30 -2,90 -4.6,150 -2.7,60 -6.7,120 3.5,180 10.1,60 34.5,120 46.5,180 12,60 11.6,120 -1.9,180 -13.5,60 -40.1,120 -43.1,180 -3,60 17.6,120 28,150 l 10.3,30 H 0 v -30 C 0,1020 0,960 0,900 0,840 0,780 0,720 0,660 0,600 0,540 0,480 0,420 0,360 0,300 0,240 0,180 0,120 0,60 0,30 V 0 Z"
         fill="#181825"
         id="path1" /><path
         d="m 163,0 -7.3,30 c -7.4,30 -22,90 -21.7,150 0.3,60 15.7,120 22.7,180 7,60 5.6,120 6.8,180 1.2,60 4.8,120 -2.2,180 -7,60 -24.6,120 -32.8,180 -8.2,60 -6.8,120 -6.2,150 l 0.7,30 H 0 v -30 C 0,1020 0,960 0,900 0,840 0,780 0,720 0,660 0,600 0,540 0,480 0,420 0,360 0,300 0,240 0,180 0,120 0,60 0,30 V 0 Z"
         fill="#11111b"
         id="path2" /></g><g
       id="g2"
       transform="translate(960.17628,-0.37059293)"><rect
         x="0"
         y="0"
         width="960"
         height="1080"
         fill="#1e1e2e"
         id="rect1-3" /><path
         d="m 674,1080 -3.5,-30 C 667,1020 660,960 658.8,900 c -1.1,-60 3.5,-120 6.4,-180 2.8,-60 3.8,-120 12.6,-180 8.9,-60 25.5,-120 29.7,-180 4.2,-60 -4.2,-120 -10.7,-180 C 690.3,120 685.7,60 683.3,30 L 681,0 h 279 v 30 c 0,30 0,90 0,150 0,60 0,120 0,180 0,60 0,120 0,180 0,60 0,120 0,180 0,60 0,120 0,180 0,60 0,120 0,150 v 30 z"
         fill="#181825"
         id="path1-6" /><path
         d="m 772,1080 10.2,-30 c 10.1,-30 30.5,-90 41.5,-150 11,-60 12.6,-120 -0.4,-180 -13,-60 -40.6,-120 -39.6,-180 1,-60 30.6,-120 39.6,-180 9,-60 -2.6,-120 -10.3,-180 C 805.3,120 801.7,60 799.8,30 L 798,0 h 162 v 30 c 0,30 0,90 0,150 0,60 0,120 0,180 0,60 0,120 0,180 0,60 0,120 0,180 0,60 0,120 0,180 0,60 0,120 0,150 v 30 z"
         fill="#11111b"
         id="path2-7" /></g></g></svg>
